<?xml version="1.0" encoding="UTF-8"?>
<svg
    xmlns="http://www.w3.org/2000/svg"
    viewBox="0 0 400 500"
    width="400"
    height="500">

<path
id="indiaPath"
fill="none"
stroke="#0A4FAF"
stroke-width="3"
stroke-linecap="round"
stroke-linejoin="round"
d="M171 18
L178 25
L186 31
L194 39
L203 47
L212 56
L220 66
L229 77
L236 88
L243 100
L248 113
L252 126
L256 140
L260 155
L264 170
L266 184
L267 198
L264 214
L259 229
L252 243
L246 257
L241 272
L244 286
L250 301
L256 316
L260 332
L259 347
L254 361
L247 375
L240 388
L231 401
L220 414
L208 426
L196 438
L183 448
L171 458
L161 469
L154 478
L148 470
L144 458
L138 444
L131 429
L124 413
L118 397
L111 381
L104 365
L98 349
L92 333
L87 316
L82 300
L77 283
L73 266
L69 248
L67 231
L67 214
L69 197
L73 180
L79 164
L86 148
L95 132
L105 117
L116 103
L128 90
L141 78
L152 66
L161 54
L166 42
L171 18"/>
</svg>